<?xml version="1.0" standalone="no"?>
<!DOCTYPE svg PUBLIC "-//W3C//DTD SVG 20010904//EN"
 "http://www.w3.org/TR/2001/REC-SVG-20010904/DTD/svg10.dtd">
<svg version="1.0" xmlns="http://www.w3.org/2000/svg"
 width="400.000000pt" height="400.000000pt" viewBox="0 0 400.000000 400.000000"
 preserveAspectRatio="xMidYMid meet">
<metadata>
Created by potrace 1.11, written by Peter Selinger 2001-2013
</metadata>
<g transform="translate(0.000000,400.000000) scale(0.100000,-0.100000)"
fill="#000000" stroke="none">
<path d="M2076 3958 c-11 -6 -38 -12 -60 -13 l-41 -2 -30 -114 c-17 -63 -31
-117 -32 -122 -29 -133 -31 -137 -113 -161 -55 -15 -184 -84 -229 -121 -39
-33 -114 -96 -139 -117 -19 -15 -133 -107 -208 -167 -29 -23 -165 -80 -214
-90 -61 -11 -148 -8 -207 8 -62 17 -83 14 -83 -12 0 -23 71 -107 91 -107 6 0
43 -14 83 -30 l72 -30 -38 -77 c-21 -44 -40 -100 -44 -132 -10 -81 -10 -80
-16 -86 -3 -3 -120 -7 -259 -8 -279 -3 -282 -3 -347 -67 -54 -54 -59 -87 -58
-444 l1 -320 223 0 222 0 0 -63 c0 -97 36 -167 101 -193 27 -12 28 -13 14 -40
-8 -15 -37 -52 -64 -82 -81 -88 -44 -102 132 -50 84 25 97 27 98 13 3 -93 20
-155 102 -381 19 -52 38 -115 42 -140 3 -25 9 -58 11 -75 3 -16 11 -36 19 -44
12 -13 21 -8 66 37 29 29 55 52 59 52 3 0 41 -44 83 -97 42 -54 100 -123 127
-153 69 -75 114 -144 135 -210 33 -99 73 -99 93 -1 15 70 27 82 50 50 8 -12
70 -77 136 -144 67 -67 133 -137 148 -156 22 -29 29 -32 45 -23 10 6 25 29 33
51 12 34 69 126 103 168 4 6 24 32 42 59 l35 49 12 -34 c23 -67 68 -141 110
-180 23 -21 45 -39 49 -39 17 0 29 32 34 86 8 99 17 118 161 356 126 208 113
192 138 170 56 -52 187 -112 242 -112 37 0 42 23 21 118 -27 127 -28 387 -1
457 7 17 38 17 129 -1 62 -12 136 -9 145 5 10 18 5 33 -38 100 -36 57 -86 160
-81 166 2 1 23 5 46 7 22 3 57 15 77 27 63 39 83 90 86 221 l0 25 134 1 c118
1 139 4 176 23 58 30 104 87 116 144 4 18 8 554 5 645 l-1 23 -207 -2 c-115 0
-256 0 -315 0 l-107 1 -31 59 c-17 32 -52 80 -77 105 -40 41 -47 60 -25 61 19
1 183 60 222 80 70 36 130 109 130 157 0 34 -7 35 -77 2 -72 -33 -152 -37
-257 -13 -159 35 -214 71 -440 290 -153 148 -172 165 -246 211 -63 40 -126 66
-177 74 -69 11 -78 14 -89 29 -6 9 -9 41 -7 77 12 190 8 259 -15 258 -4 0 -16
-6 -26 -12z"/>
</g>
</svg>
